<svg width="17" height="18" viewBox="0 0 17 18" fill="none" xmlns="http://www.w3.org/2000/svg">
<mask id="mask0_169_1613" style="mask-type:luminance" maskUnits="userSpaceOnUse" x="0" y="0" width="17" height="18">
<path d="M16.9884 0.428467H0.856934V17.5713H16.9884V0.428467Z" fill="white"/>
</mask>
<g mask="url(#mask0_169_1613)">
<path d="M8.92119 4.02406C10.6294 4.02406 12.0142 3.21918 12.0142 2.22626C12.0142 1.23337 10.6294 0.428467 8.92119 0.428467C7.21297 0.428467 5.82812 1.23337 5.82812 2.22626C5.82812 3.21918 7.21297 4.02406 8.92119 4.02406Z" fill="#E6007A"/>
<path d="M8.92119 17.5702C10.6294 17.5702 12.0142 16.7653 12.0142 15.7724C12.0142 14.7795 10.6294 13.9746 8.92119 13.9746C7.21297 13.9746 5.82812 14.7795 5.82812 15.7724C5.82812 16.7653 7.21297 17.5702 8.92119 17.5702Z" fill="#E6007A"/>
<path d="M4.61076 6.51261C5.46487 5.03421 5.45933 3.43297 4.59837 2.93617C3.73741 2.43942 2.34707 3.23519 1.49294 4.71359C0.638816 6.19204 0.644361 7.79323 1.50532 8.29003C2.36627 8.78683 3.75666 7.99106 4.61076 6.51261Z" fill="#E6007A"/>
<path d="M16.3477 13.285C17.2019 11.8066 17.1968 10.2056 16.3364 9.70919C15.476 9.21273 14.0861 10.0088 13.232 11.4872C12.3779 12.9656 12.383 14.5666 13.2433 15.063C14.1037 15.5595 15.4936 14.7634 16.3477 13.285Z" fill="#E6007A"/>
<path d="M4.59887 15.0625C5.45983 14.5657 5.46537 12.9645 4.61126 11.4861C3.75711 10.0076 2.36677 9.21185 1.50581 9.70865C0.64485 10.2054 0.639306 11.8066 1.49343 13.285C2.34757 14.7635 3.73791 15.5593 4.59887 15.0625Z" fill="#E6007A"/>
<path d="M16.3379 8.29059C17.1982 7.79413 17.2033 6.19318 16.3492 4.71473C15.4951 3.23633 14.1052 2.44027 13.2448 2.93673C12.3844 3.43318 12.3793 5.03413 13.2335 6.51253C14.0876 7.99098 15.4775 8.78704 16.3379 8.29059Z" fill="#E6007A"/>
</g>
</svg>
